<svg width="23" height="23" viewBox="0 0 23 23" fill="none" xmlns="http://www.w3.org/2000/svg">
<path d="M11.5 23C13.0878 23 14.375 21.7128 14.375 20.125H8.625C8.625 21.7128 9.91218 23 11.5 23Z" fill="white"/>
<path d="M11.5 2.75748L10.354 2.98892C7.72731 3.51942 5.75003 5.84291 5.75003 8.625C5.75003 9.5275 5.55688 11.7835 5.09041 14.0044C4.85884 15.1068 4.54903 16.2547 4.13726 17.25H18.8627C18.451 16.2547 18.1412 15.1068 17.9096 14.0043C17.4432 11.7835 17.25 9.52749 17.25 8.625C17.25 5.84289 15.2727 3.51939 12.646 2.98891L11.5 2.75748ZM20.4403 17.25C20.7612 17.8931 21.1334 18.4014 21.5625 18.6875H1.4375C1.86663 18.4014 2.23883 17.8931 2.55976 17.25C3.85138 14.6616 4.31253 9.88879 4.31253 8.625C4.31253 5.1453 6.78529 2.24314 10.0695 1.57987C10.0649 1.53304 10.0625 1.48554 10.0625 1.4375C10.0625 0.643591 10.7061 0 11.5 0C12.2939 0 12.9375 0.643591 12.9375 1.4375C12.9375 1.48554 12.9351 1.53303 12.9305 1.57986C16.2147 2.24311 18.6875 5.14528 18.6875 8.625C18.6875 9.88879 19.1486 14.6616 20.4403 17.25Z" fill="white"/>
<circle cx="16.1" cy="4.59999" r="2.3" fill="#FF7A00"/>
</svg>
