<svg width="21" height="23" viewBox="0 0 21 23" fill="none" xmlns="http://www.w3.org/2000/svg">
<path d="M10.5 23C12.0878 23 13.375 21.7128 13.375 20.125H7.625C7.625 21.7128 8.91218 23 10.5 23Z" fill="white"/>
<path d="M10.5 2.75748L9.35403 2.98892C6.72731 3.51942 4.75003 5.84291 4.75003 8.625C4.75003 9.5275 4.55688 11.7835 4.09041 14.0044C3.85884 15.1068 3.54903 16.2547 3.13726 17.25H17.8627C17.451 16.2547 17.1412 15.1068 16.9096 14.0043C16.4432 11.7835 16.25 9.52749 16.25 8.625C16.25 5.84289 14.2727 3.51939 11.646 2.98891L10.5 2.75748ZM19.4403 17.25C19.7612 17.8931 20.1334 18.4014 20.5625 18.6875H0.4375C0.866632 18.4014 1.23883 17.8931 1.55976 17.25C2.85138 14.6616 3.31253 9.88879 3.31253 8.625C3.31253 5.1453 5.78529 2.24314 9.06946 1.57987C9.06486 1.53304 9.0625 1.48554 9.0625 1.4375C9.0625 0.643591 9.70609 0 10.5 0C11.2939 0 11.9375 0.643591 11.9375 1.4375C11.9375 1.48554 11.9351 1.53303 11.9305 1.57986C15.2147 2.24311 17.6875 5.14528 17.6875 8.625C17.6875 9.88879 18.1486 14.6616 19.4403 17.25Z" fill="white"/>
</svg>
