<svg width="12" height="21" viewBox="0 0 12 21" fill="none" xmlns="http://www.w3.org/2000/svg">
<path d="M0.566298 1.26455C0.296963 1.54651 0.145659 1.92889 0.145659 2.32758C0.145659 2.72628 0.296963 3.10866 0.566298 3.39062L9 10.8334L0.566298 18.2762C0.304596 18.5597 0.159787 18.9396 0.16306 19.3338C0.166334 19.728 0.317427 20.1051 0.583798 20.3839C0.850169 20.6627 1.2105 20.8208 1.5872 20.8243C1.96389 20.8277 2.32679 20.6761 2.59775 20.4022L10.725 11.8964C10.9944 11.6145 11.1457 11.2321 11.1457 10.8334C11.1457 10.4347 10.9944 10.0523 10.725 9.77036L2.5 1.26455C2.23058 0.982667 1.96298 0.824316 1.58203 0.824316C1.20107 0.824316 0.835714 0.982667 0.566298 1.26455Z" fill="black"/>
</svg>
